<svg width="65" height="37" viewBox="0 0 65 37" fill="none" xmlns="http://www.w3.org/2000/svg">
<path d="M40.282 31.7914V22.8491C41.3179 21.9862 41.9786 20.6874 41.9786 19.2369V17.1192L26.9378 8.74837V7.54187H32.3521V2.33362H25.0628V8.74856L10 17.1188V19.2369C10 20.6978 10.67 22.005 11.7187 22.8678V31.7914H10.0006V33.6663H42V31.7914L40.282 31.7914ZM26.9378 4.20856H30.4771V5.66687H26.9378V4.20856ZM39.2571 17.7504H34.1628L29.5001 12.3201L39.2571 17.7504ZM26.9268 12.2014L31.6916 17.7504H26.9268V12.2014ZM32.5511 19.6253C32.3613 21.0002 31.1784 22.0624 29.7523 22.0624C28.3259 22.0624 27.1431 21.0002 26.9534 19.6253H32.5511ZM20.3048 17.7504L25.0518 12.2067V17.7504H20.3048ZM25.0251 19.6253C24.8354 21.0002 23.6525 22.0624 22.2263 22.0624C20.8 22.0624 19.6172 21.0002 19.4274 19.6253H25.0251ZM22.4776 12.3301L17.8362 17.7504H12.7235L22.4776 12.3301ZM11.9016 19.6253H17.4992C17.3094 21.0002 16.1266 22.0624 14.7004 22.0624C13.2742 22.0624 12.0913 21.0002 11.9016 19.6253ZM17.5987 31.7914H13.5937V23.8046C13.9489 23.8906 14.3192 23.9374 14.7004 23.9374C16.2379 23.9374 17.6053 23.1953 18.4634 22.0507C19.3215 23.1954 20.6888 23.9374 22.2264 23.9374C23.199 23.9374 24.1034 23.6404 24.854 23.1325C24.6313 24.2642 24.2332 25.3601 23.6708 26.3725C22.7602 28.0119 21.4373 29.4022 19.8451 30.3932L17.5987 31.7914ZM21.1362 31.7914C22.8642 30.648 24.3029 29.0961 25.31 27.283C25.5706 26.8137 25.8008 26.329 26.0004 25.8326C26.2 26.3289 26.4301 26.8137 26.6908 27.283C27.6979 29.096 29.1366 30.648 30.8646 31.7914H21.1362ZM38.407 31.7914H34.4019L32.1555 30.3932C30.5634 29.4022 29.2404 28.0119 28.3298 26.3725C27.7701 25.3649 27.3733 24.2749 27.1501 23.149C27.8957 23.6466 28.7905 23.9374 29.7522 23.9374C31.2896 23.9374 32.657 23.1953 33.5151 22.0507C34.3732 23.1954 35.7406 23.9374 37.2781 23.9374C37.6672 23.9374 38.0451 23.889 38.407 23.7994V31.7914ZM37.2781 22.0624C35.8518 22.0624 34.669 21.0002 34.4792 19.6254H40.0769C39.8872 21.0002 38.7044 22.0624 37.2781 22.0624Z" fill="#10375C"/>
</svg>
