<svg width="65" height="68" viewBox="0 0 65 68" fill="none" xmlns="http://www.w3.org/2000/svg">
<path d="M36.25 8.5C38.3179 8.5 40 6.81787 40 4.75C40 2.68213 38.3179 1 36.25 1C34.1821 1 32.5 2.68213 32.5 4.75C32.5 6.81787 34.1821 8.5 36.25 8.5ZM36.25 3.5C36.9392 3.5 37.5 4.06079 37.5 4.75C37.5 5.43921 36.9392 6 36.25 6C35.5608 6 35 5.43921 35 4.75C35 4.06079 35.5608 3.5 36.25 3.5ZM11.75 8.5C13.8179 8.5 15.5 6.81787 15.5 4.75C15.5 2.68213 13.8179 1 11.75 1C9.68213 1 8 2.68213 8 4.75C8 6.81787 9.68213 8.5 11.75 8.5ZM11.75 3.5C12.4392 3.5 13 4.06079 13 4.75C13 5.43921 12.4392 6 11.75 6C11.0608 6 10.5 5.43921 10.5 4.75C10.5 4.06079 11.0608 3.5 11.75 3.5ZM36.2695 9.6875C36.2634 9.6875 36.2573 9.6875 36.2512 9.6875C33.6638 9.6875 32.6829 11.5713 32.0647 13.4153C31.8545 14.0425 31.3982 15.4128 31.0986 16.3125H29.625V13.4375C29.625 11.3696 27.9429 9.6875 25.875 9.6875H22.125C20.0571 9.6875 18.375 11.3696 18.375 13.4375V16.3125H16.9014C16.6018 15.4128 16.1455 14.0425 15.9353 13.4153C15.3169 11.5713 14.3364 9.6875 11.7488 9.6875C11.7427 9.6875 11.7363 9.6875 11.7302 9.6875C9.67334 9.69458 8 11.377 8 13.4375V20.25C8 21.8796 9.04517 23.269 10.5 23.7849V23.8125C10.5322 23.8125 10.5637 23.8149 10.5955 23.8174C10.7346 23.8625 10.8772 23.8999 11.0229 23.9287C11.4514 24.127 11.75 24.5601 11.75 25.0625V33H14.25V25.0625C14.25 24.6936 14.1956 24.3372 14.0957 24H15.5625C16.2517 24 16.8125 24.5608 16.8125 25.25V33H19.3125V25.25C19.3125 23.1821 17.6304 21.5 15.5625 21.5H11.75C11.7178 21.5 11.6863 21.4976 11.6545 21.4951C11.5154 21.45 11.3728 21.4126 11.2271 21.3838C10.7986 21.1855 10.5 20.7524 10.5 20.25V13.4375C10.5 12.7507 11.0559 12.1899 11.739 12.1875C12.304 12.1855 12.8855 12.1836 13.5647 14.2097C13.8894 15.1782 14.8047 17.9294 14.814 17.957L15.0984 18.8125H32.9016L33.186 17.957C33.1953 17.9294 34.1106 15.1782 34.4353 14.2097C35.1143 12.1836 35.696 12.1863 36.261 12.1875C36.9441 12.1899 37.5 12.7507 37.5 13.4375V20.25C37.5 20.7524 37.2014 21.1855 36.7729 21.3838C36.6272 21.4126 36.4846 21.45 36.3455 21.4951C36.3137 21.4976 36.2822 21.5 36.25 21.5H32.5C30.4321 21.5 28.75 23.1821 28.75 25.25V33H31.25V25.25C31.25 24.5608 31.8108 24 32.5 24H33.9043C33.8044 24.3372 33.75 24.6936 33.75 25.0625V33H36.25V25.0625C36.25 24.5601 36.5486 24.127 36.9771 23.9287C37.1228 23.8999 37.2654 23.8625 37.4045 23.8174C37.4363 23.8149 37.4678 23.8125 37.5 23.8125V23.7849C38.9548 23.269 40 21.8796 40 20.25V13.4375C40 11.377 38.3267 9.69458 36.2695 9.6875ZM20.875 13.4375C20.875 12.7483 21.4358 12.1875 22.125 12.1875H25.875C26.5642 12.1875 27.125 12.7483 27.125 13.4375V16.3125H20.875V13.4375ZM24 8.5C26.0679 8.5 27.75 6.81787 27.75 4.75C27.75 2.68213 26.0679 1 24 1C21.9321 1 20.25 2.68213 20.25 4.75C20.25 6.81787 21.9321 8.5 24 8.5ZM24 3.5C24.6892 3.5 25.25 4.06079 25.25 4.75C25.25 5.43921 24.6892 6 24 6C23.3108 6 22.75 5.43921 22.75 4.75C22.75 4.06079 23.3108 3.5 24 3.5Z" fill="#10375C"/>
</svg>
