<svg width="65" height="32" viewBox="0 0 65 32" fill="none" xmlns="http://www.w3.org/2000/svg">
<g clip-path="url(#clip0_7497_89)">
<path d="M25.9375 29.1562C27.0766 29.1562 28 28.2328 28 27.0937C28 25.9546 27.0766 25.0312 25.9375 25.0312C24.7984 25.0312 23.875 25.9546 23.875 27.0937C23.875 28.2328 24.7984 29.1562 25.9375 29.1562Z" fill="#10375C"/>
<path d="M32.072 20.0182C30.4457 18.407 28.1146 17.4062 25.9883 17.4062C25.988 17.4062 25.9876 17.4062 25.9873 17.4062H25.8973C25.8969 17.4062 25.8967 17.4062 25.8963 17.4062C23.7699 17.4062 21.4386 18.4071 19.8125 20.0182C19.3221 20.5041 19.3184 21.2955 19.8043 21.786C20.0487 22.0326 20.3705 22.1562 20.6923 22.1562C21.0102 22.1562 21.3283 22.0356 21.572 21.7942C22.7296 20.6472 24.427 19.9062 25.8965 19.9062C25.8966 19.9062 25.8969 19.9062 25.8971 19.9062H25.9875C25.9878 19.9062 25.9878 19.9062 25.9881 19.9062C27.4574 19.9062 29.1548 20.6473 30.3124 21.7942C30.8028 22.28 31.5943 22.2765 32.0801 21.786C32.5661 21.2956 32.5624 20.5041 32.072 20.0182Z" fill="#10375C"/>
<path d="M41.6644 9.67899C37.5563 5.27131 31.9934 2.84381 25.9998 2.84375C20.0066 2.84381 14.4437 5.27131 10.3355 9.67899C9.86492 10.184 9.89273 10.975 10.3977 11.4457C10.9028 11.9163 11.6937 11.8885 12.1644 11.3835C15.7944 7.48874 20.7079 5.34381 26.0002 5.34375C31.2921 5.34381 36.2056 7.48874 39.8355 11.3835C40.0817 11.6476 40.4155 11.7812 40.7502 11.7812C41.0554 11.7812 41.3614 11.6701 41.6022 11.4457C42.1072 10.9749 42.1351 10.184 41.6644 9.67899Z" fill="#10375C"/>
<path d="M37.0746 14.8411C34.0379 11.7815 30.1049 10.0966 25.9999 10.0967C21.8939 10.0967 17.9608 11.7817 14.9251 14.8412C14.4388 15.3313 14.4419 16.1227 14.9319 16.609C15.422 17.0952 16.2134 17.0922 16.6997 16.6021C19.2625 14.0192 22.5654 12.5967 25.9999 12.5967C29.4335 12.5965 32.7363 14.0191 35.3001 16.6022C35.5445 16.8484 35.8658 16.9717 36.1873 16.9717C36.5056 16.9717 36.8241 16.8508 37.068 16.6088C37.5579 16.1225 37.5609 15.3311 37.0746 14.8411Z" fill="#10375C"/>
</g>
<defs>
<clipPath id="clip0_7497_89">
<rect width="32" height="32" fill="white" transform="translate(10)"/>
</clipPath>
</defs>
</svg>
